# xmcd CD database file
#
# Track frame offsets:
#	150
#	17484
#	34809
#	49377
#	65086
#	81005
#	96071
#	112011
#	130103
#	145762
#	158755
#	178121
#	192192
#	205360
#	220293
#	235903
#	252913
#	267228
#	280478
#
# Disc length: 3940 seconds
#
# Revision: 0
# Processed by: cddbd v1.5.2PL0 Copyright (c) Steve Scherf et al.
# Submitted via: CDex 1.70beta2
#
DISCID=1b0f6213
DTITLE=Various Artist - CDX Volume 413 January 2007
DYEAR=2007
DGENRE=Country
TTITLE0=Kenny Chesney - Beer In Mexico
TTITLE1=Odiss Kohn - Gonna Wake Up Dancin'
TTITLE2=Eric Church - Guys Like Me
TTITLE3=Jerrod Niemann - I Love Women (My Momma Can't Stand)
TTITLE4=Beverley Mitchell - Heaven On Earth Down Here
TTITLE5=Craig Morgan - Tough
TTITLE6=Daryle Singletary - I Still Sing This Way
TTITLE7=Ricky Lynn Gregg - I Wanna Be Loved By You
TTITLE8=Woody Bradshaw - The Last Tghing You Do
TTITLE9=Mike Lee - A Lover's Triangle
TTITLE10=Memarie - Cry Like Memphis
TTITLE11=Miko Marks - Don't Come Cryin' To Me
TTITLE12=The Longhaulers - Highway Harmony
TTITLE13=Doc Wooten - I'd Die For You
TTITLE14=Johnny Napp - I Like A Woman With Meat On Her Bones
TTITLE15=Kim McAbee - I'll Still Be Waiting For You
TTITLE16=Leah Durelle - I'm Not Sorry
TTITLE17=Vince Hatfield - Stop And Smell The Roses
TTITLE18=Sharmian - The First One To Hurt
EXTD=YEAR: 2007
EXTT0=
EXTT1=
EXTT2=
EXTT3=
EXTT4=
EXTT5=
EXTT6=
EXTT7=
EXTT8=
EXTT9=
EXTT10=
EXTT11=
EXTT12=
EXTT13=
EXTT14=
EXTT15=
EXTT16=
EXTT17=
EXTT18=
PLAYORDER=
